<svg width="40" height="40" viewBox="0 0 40 40" fill="none" xmlns="http://www.w3.org/2000/svg">
<g clip-path="url(#clip0_262_10164)">
<path d="M39.4437 18.9594L31.9438 13.9594C31.7555 13.8338 31.5366 13.7616 31.3105 13.7507C31.0844 13.7397 30.8596 13.7904 30.66 13.8972C30.4605 14.004 30.2937 14.163 30.1774 14.3573C30.0612 14.5515 29.9999 14.7737 30 15V18.75H11.25V11.25H16.4062C16.7105 12.4283 17.434 13.4553 18.4413 14.1383C19.4485 14.8213 20.6702 15.1135 21.8775 14.9602C23.0848 14.8068 24.1947 14.2184 24.9992 13.3053C25.8036 12.3922 26.2475 11.217 26.2475 10C26.2475 8.78305 25.8036 7.60785 24.9992 6.69472C24.1947 5.78159 23.0848 5.19321 21.8775 5.03986C20.6702 4.88652 19.4485 5.17874 18.4413 5.86176C17.434 6.54478 16.7105 7.57169 16.4062 8.75001H11.25C10.587 8.75001 9.95107 9.0134 9.48223 9.48225C9.01339 9.95109 8.75 10.587 8.75 11.25V18.75H1.25C0.918479 18.75 0.600537 18.8817 0.366117 19.1161C0.131696 19.3506 0 19.6685 0 20C0 20.3315 0.131696 20.6495 0.366117 20.8839C0.600537 21.1183 0.918479 21.25 1.25 21.25H8.75V28.75C8.75 29.4131 9.01339 30.0489 9.48223 30.5178C9.95107 30.9866 10.587 31.25 11.25 31.25H16.25V32.5C16.25 33.1631 16.5134 33.7989 16.9822 34.2678C17.4511 34.7366 18.087 35 18.75 35H23.75C24.413 35 25.0489 34.7366 25.5178 34.2678C25.9866 33.7989 26.25 33.1631 26.25 32.5V27.5C26.25 26.837 25.9866 26.2011 25.5178 25.7322C25.0489 25.2634 24.413 25 23.75 25H18.75C18.087 25 17.4511 25.2634 16.9822 25.7322C16.5134 26.2011 16.25 26.837 16.25 27.5V28.75H11.25V21.25H30V25C29.9999 25.2264 30.0612 25.4485 30.1774 25.6427C30.2937 25.837 30.4605 25.996 30.66 26.1028C30.8596 26.2097 31.0844 26.2603 31.3105 26.2494C31.5366 26.2384 31.7555 26.1663 31.9438 26.0406L39.4437 21.0406C39.6152 20.9265 39.7558 20.7718 39.8531 20.5903C39.9503 20.4087 40.0012 20.206 40.0012 20C40.0012 19.7941 39.9503 19.5913 39.8531 19.4097C39.7558 19.2282 39.6152 19.0735 39.4437 18.9594ZM21.25 7.50001C21.7445 7.50001 22.2278 7.64663 22.6389 7.92134C23.0501 8.19604 23.3705 8.58649 23.5597 9.0433C23.7489 9.50012 23.7984 10.0028 23.702 10.4877C23.6055 10.9727 23.3674 11.4181 23.0178 11.7678C22.6681 12.1174 22.2227 12.3555 21.7377 12.452C21.2528 12.5484 20.7501 12.4989 20.2933 12.3097C19.8365 12.1205 19.446 11.8001 19.1713 11.3889C18.8966 10.9778 18.75 10.4945 18.75 10C18.75 9.33697 19.0134 8.70109 19.4822 8.23225C19.9511 7.7634 20.587 7.50001 21.25 7.50001ZM18.75 27.5H23.75V32.5H18.75V27.5ZM32.5 22.6641V17.3438L36.4969 20L32.5 22.6641Z" fill="#A7CA1A"/>
</g>
<defs>
<clipPath id="clip0_262_10164">
<rect width="40" height="40" fill="white"/>
</clipPath>
</defs>
</svg>
